<?xml version="1.0" standalone="no"?>
<!DOCTYPE svg PUBLIC "-//W3C//DTD SVG 20010904//EN"
 "http://www.w3.org/TR/2001/REC-SVG-20010904/DTD/svg10.dtd">
<svg version="1.0" xmlns="http://www.w3.org/2000/svg"
 width="226.000000pt" height="226.000000pt" viewBox="0 0 226.000000 226.000000"
 preserveAspectRatio="xMidYMid meet">
<metadata>
Created by potrace 1.11, written by Peter Selinger 2001-2013
</metadata>
<g transform="translate(0.000000,226.000000) scale(0.100000,-0.100000)"
fill="#000000" stroke="none">
<path d="M1035 2209 c-123 -15 -219 -45 -343 -107 -218 -109 -381 -273 -491
-496 -157 -315 -157 -657 0 -972 110 -223 273 -387 491 -496 131 -66 222 -93
366 -108 197 -21 383 14 570 108 218 109 381 273 491 496 157 315 157 657 0
972 -132 266 -365 471 -634 559 -135 44 -309 61 -450 44z"/>
</g>
</svg>
