<?xml version="1.0" standalone="no"?>
<!DOCTYPE svg PUBLIC "-//W3C//DTD SVG 20010904//EN"
 "http://www.w3.org/TR/2001/REC-SVG-20010904/DTD/svg10.dtd">
<svg version="1.0" xmlns="http://www.w3.org/2000/svg"
 width="16.000000pt" height="16.000000pt" viewBox="0 0 16.000000 16.000000"
 preserveAspectRatio="xMidYMid meet">
<metadata>
Created by potrace 1.11, written by Peter Selinger 2001-2013
</metadata>
<g transform="translate(0.000000,16.000000) scale(0.004030,-0.004030)"
fill="#000000" stroke="none">
<path d="M1426 2334 c-12 -33 -8 -695 5 -710 14 -17 110 -19 127 -2 27 27 0
68 -40 62 -10 -1 -18 1 -19 4 -1 4 -2 149 -3 322 0 173 -5 321 -9 328 -12 18
-54 15 -61 -4z"/>
<path d="M2248 2279 c-31 -18 -21 -69 16 -82 43 -16 77 61 37 83 -24 12 -31
12 -53 -1z"/>
<path d="M3887 2278 c-29 -21 -29 -56 -1 -74 22 -15 26 -15 49 0 30 19 32 46
7 69 -22 20 -33 21 -55 5z"/>
<path d="M14 2118 c-10 -15 -11 -463 -2 -489 5 -12 17 -19 32 -19 35 0 39 21
40 205 1 126 4 155 19 178 30 46 66 61 135 58 12 -1 39 -16 60 -35 l37 -34 3
-174 c2 -101 8 -178 14 -185 13 -17 44 -17 55 0 4 6 8 84 9 172 1 179 10 212
66 241 60 31 131 16 169 -37 21 -30 22 -42 23 -198 1 -91 5 -172 9 -178 10
-16 39 -17 55 -1 18 18 16 335 -2 379 -55 131 -233 171 -331 73 l-26 -26 -33
30 c-19 17 -51 35 -72 42 -45 15 -127 7 -161 -16 -24 -15 -26 -15 -40 5 -15
23 -48 28 -59 9z"/>
<path d="M1008 2121 c-71 -23 -139 -88 -167 -157 -22 -56 -20 -140 5 -194 29
-62 59 -96 114 -128 39 -23 56 -27 125 -27 58 0 89 5 113 18 49 27 71 53 65
76 -8 30 -32 34 -70 10 -98 -61 -222 -30 -272 68 -6 12 -11 26 -11 32 0 8 66
11 204 11 232 0 237 1 230 69 -5 51 -16 77 -53 128 -45 62 -105 93 -188 98
-37 3 -80 1 -95 -4z m147 -81 c36 -12 75 -50 99 -97 l17 -33 -31 -1 c-16 0
-86 0 -155 0 -69 0 -139 0 -155 0 l-30 1 19 38 c47 92 134 126 236 92z"/>
<path d="M1651 2116 c-15 -18 -12 -31 50 -166 163 -351 154 -335 180 -338 24
-3 32 10 137 238 91 196 110 245 102 261 -14 26 -46 24 -64 -3 -8 -13 -42 -84
-76 -158 -88 -194 -90 -200 -96 -200 -4 0 -52 99 -120 250 -51 113 -59 125
-80 128 -11 2 -26 -4 -33 -12z"/>
<path d="M2251 2121 c-11 -7 -14 -53 -15 -238 -2 -229 4 -273 33 -273 43 1 44
7 44 260 0 196 -3 244 -14 251 -18 11 -30 11 -48 0z"/>
<path d="M2432 2113 c-11 -22 -10 -473 1 -490 11 -17 42 -16 56 1 7 9 12 69
14 168 2 152 2 155 30 191 36 47 78 69 133 69 58 0 116 -34 144 -84 20 -35 22
-53 22 -181 0 -147 6 -177 37 -177 37 0 42 22 40 182 -1 174 -11 207 -77 270
-77 73 -180 88 -276 40 -47 -24 -56 -26 -56 -12 0 37 -52 55 -68 23z"/>
<path d="M3416 2115 c-52 -18 -84 -43 -123 -94 -132 -172 7 -425 224 -409 57
4 88 15 148 53 17 10 27 15 23 11 -11 -13 13 -66 30 -66 40 1 44 14 46 140 1
147 -11 215 -47 267 -66 95 -193 137 -301 98z m188 -94 c45 -30 75 -81 80
-136 15 -151 -154 -251 -282 -168 -70 46 -100 134 -73 215 14 43 79 105 118
114 16 3 33 7 38 8 26 7 84 -9 119 -33z"/>
<path d="M3882 2113 c-5 -10 -9 -123 -8 -252 1 -211 3 -235 19 -245 12 -8 22
-8 35 0 15 10 17 35 20 249 2 167 -1 242 -9 251 -16 19 -47 17 -57 -3z"/>
</g>
</svg>
